DataType=double
version=3
OpenSimVersion=4.5-2023-11-26-efcdfd3eb
endheader
time	EMG01_right_gast_med	EMG02_right_glut_max	EMG03_left_gast_med	EMG04_left_glut_max	EMG05_right_glut_med	EMG06_right_bic_fem	EMG07_right_rect_fem	EMG08_right_vast_lat	EMG09_right_vast_med	EMG10_right_tens_fasc_lat	EMG11_left_glut_med	EMG12_left_bic_fem	EMG13_left_rect_fem	EMG14_left_vast_lat	EMG15_left_vast_med	EMG16_left_tens_fasc_lat
0.83	200.9482422227601	-2.590737634841816	8.704833742987692	33.21236146294952	47.20792512255323	16.034199979027	6.823611734580026	4.66771542712642	1.560822747500306	12.22822443032848	11.11183778311852	16.65355844607273	17.09033480294044	17.3585329667867	12.02149295456936	38.94556666552862
0.84	201.7313443722828	-2.652560629326436	9.674095352538535	31.7716509837432	52.5298982585398	15.43205366275243	6.995085098707389	4.882586512017485	1.476931620332369	12.08717721061495	12.08531618272563	17.39797154430131	17.36399925518711	18.60169902304632	13.97832042298679	38.81606516365839
0.85	201.6597223099872	-2.467662921108954	10.52153162946751	30.52287405406239	58.56633246084063	14.84242037297738	7.176760538975913	5.135554430264643	1.622330197111505	12.12820813090503	13.08956984071964	18.10367408969168	17.6503599694056	19.86069343934264	16.09485654775954	38.97457915319315
0.86	200.7140499166861	-2.032053657173923	11.24293458584154	29.46711855643382	65.28321868346201	14.26564063794488	7.36592952875416	5.424280188248355	1.980074298355474	12.34376328625956	14.11819401887345	18.76548676798135	17.94724989732883	21.12481253808854	18.35840235354435	39.4489106990413
0.87	198.8855628354618	-1.343503561237242	11.83624043369882	28.60303378105117	72.63651404437151	13.70209360906075	7.5596839432236	5.746244123223253	2.532038795976022	12.72449244989091	15.16410582988708	19.37853859388558	18.2518974745641	22.38283063995412	20.75390426087219	40.26318251332764
0.88	196.1765863189373	-0.4016481541596605	12.3014876722427	27.92695252821466	80.57223967340437	13.15218272667131	7.754964788777126	6.098746734336892	3.259126626725387	13.2594269794797	16.21960258841974	19.9382937309563	18.56098137922733	23.62314917730476	23.26404824854438	41.43746393835556
0.89	192.6008326997867	0.7919092825947327	12.64077043594832	27.43302949009736	89.0267335933893	12.61632423969093	7.948614282233939	6.478905510056909	4.141471326045342	13.93616961530455	17.27643631356966	20.44057733140715	18.87069947831549	24.83395687214479	25.86939102516635	42.98745091681504
0.9	188.1834448717611	2.233497643349342	12.85818813882081	27.11339600613572	97.92706865002945	12.09493943248527	8.137430081437223	6.88364851599863	5.158631590236532	14.74109232999881	18.3259040773716	20.88160131507926	19.17684905534269	26.00339780003209	28.54852840543258	44.92420189842883
0.91	182.9607697302921	3.917284067102152	12.95979203967833	26.95833113241837	107.1916432152382	11.58845131855413	8.318220369221887	7.309705824764118	6.289776873276725	15.6595389917974	19.35895354668622	21.25799068181496	19.47491533809358	27.1197441167125	31.27830049813333	47.253930067158
0.92	176.9798565562847	5.835189868568585	12.95352891677306	26.95644865058211	116.7309491734466	11.09728648367907	8.487858532383811	7.753600238387534	7.513863516748229	16.67603016776	20.366302742137	21.56681071473853	19.76016543756021	28.17157021664624	34.03403279705821	49.97785089807201
0.93	170.2976890694512	7.976820451275057	12.84918158157828	27.09489918186025	126.4485180103612	10.62188260067543	8.643336328868843	8.211639056503969	8.809801398359729	17.77446764155161	21.33857263411253	21.80559532034863	20.02774493360572	29.14792494267988	36.78981175327514	53.0920831686978
0.9399999999999999	162.9801742764649	10.32941363142793	12.65830549802563	27.35958599208743	136.2420416394303	10.16270187084022	8.781814566665391	8.679908783216041	10.15661151477561	18.93833627864266	22.26643068685664	21.97237666004493	20.27277445308218	30.03849817199275	39.51879278303537	56.58760143129825
0.95	155.1009240916696	12.8778110573078	12.39416034047195	27.73539240436671	146.0046595841322	9.720250390906239	8.900670313427803	9.154274667561168	11.53357526537668	20.15090101196732	23.14074287937288	22.06571601333145	20.4904437707625	30.83377791330645	42.19353787258758	60.45023877765701
0.96	146.7398750603404	15.6044575954484	12.0716349503629	28.20641798416701	155.6263982084284	9.295103320915777	8.997539542585121	9.630386903702826	12.92037653087761	21.39539700289762	23.95273110090907	22.08473542600622	20.67610131706979	31.52519430929429	44.78637899440089	64.66074039521291
0.97	137.9817962063769	18.48943360241853	11.70716382353242	28.75621985952836	164.9957411813386	8.887935724467054	9.070354038199701	10.1036951762057	14.2972379673938	22.65521138496321	24.69413215503537	22.02914916340666	20.82533751300672	32.10524774597816	47.26980249727205	69.19487044957866
0.98	128.9147353647614	21.51052482916914	11.31863293002402	29.36805477149056	174.0013037033483	8.499558948129886	9.117371469070575	10.56947297719358	15.6450531830873	23.91405541974674	25.35735396319511	21.89929339950698	20.93406106419322	32.56761934127382	49.61684852429541	74.02357648896476
0.99	119.6284516982563	24.6433342629812	10.92527231767439	30.02511679358593	182.5335766178154	8.130962296024759	9.137197875522734	11.02285274382709	16.94551655551092	25.15612634573709	25.9356240898336	21.69615210783225	20.99856816336314	32.907262992311	51.80151837838703	79.11321614136477
